# xmcd
#
# Track frame offsets: 
#        150
#        9752
#        25160
#        37967
#        52320
#        60555
#        79335
#        97055
#        110777
#        126702
#        142627
#        165215
#        183700
#        200092
#        208834
#        221995
#        251697
#        263035
#        275440
#        283025
#        290082
#        293492
#
# Disc length: 4043 seconds
#
# Revision: 2
# Processed by: cddbd v1.5.2PL0 Copyright (c) Steve Scherf et al.
# Submitted via: ExactAudioCopy v0.99pb4
#
DISCID=5e0fc916
DTITLE=Аркадий Северный - Дуня Чумовая
DYEAR=1972
DGENRE=Chanson
TTITLE0=Дуня Чумовая
TTITLE1=Оля Чумовая
TTITLE2=В Доме Румянцева
TTITLE3=Про Любовь Акульки К Сереже
TTITLE4=Расскажу Кому Чего Снится
TTITLE5=Частушки Нескладушки
TTITLE6=В Бардаке Уж Другую Ебут
TTITLE7=Алешка
TTITLE8=Настроил Гитару
TTITLE9=Баллады
TTITLE10=Каторжанин
TTITLE11=Частушки Припиздушки
TTITLE12=Она Была Первой
TTITLE13=Ты Мне Не Снилась
TTITLE14=Анекдоты
TTITLE15=Кругом Одни Евреи
TTITLE16=Это Дело Было Поздней Осенью
TTITLE17=Частушки Распиздушки
TTITLE18=Прощай Моя Любовь
TTITLE19=С Пионером Гуляла Вдова
TTITLE20=Из Ресторана Вышла Блядь
TTITLE21=Каштаны
EXTD=
EXTT0=
EXTT1=
EXTT2=
EXTT3=
EXTT4=
EXTT5=
EXTT6=
EXTT7=
EXTT8=
EXTT9=
EXTT10=
EXTT11=
EXTT12=
EXTT13=
EXTT14=
EXTT15=
EXTT16=
EXTT17=
EXTT18=
EXTT19=
EXTT20=
EXTT21=
PLAYORDER=
